<?xml version="1.0" standalone="no"?>
<!DOCTYPE svg PUBLIC "-//W3C//DTD SVG 1.1//EN" "http://www.w3.org/Graphics/SVG/1.1/DTD/svg11.dtd" >
<svg xmlns="http://www.w3.org/2000/svg">
<metadata>Generated by IcoMoon</metadata>
<defs>
<font id="icomoon" horiz-adv-x="1024">
<font-face units-per-em="1024" ascent="960" descent="-64" />
<missing-glyph horiz-adv-x="1024" />
<glyph unicode="&#x20;" horiz-adv-x="512" d="" />
<glyph unicode="&#xe900;" glyph-name="biaoqing" d="M288.927 559.544c0-30.802 24.97-55.772 55.772-55.772s55.772 24.97 55.772 55.772c0 30.797-24.97 55.767-55.772 55.767s-55.772-24.97-55.772-55.767zM623.529 559.544c0-30.802 24.97-55.772 55.772-55.772s55.772 24.97 55.772 55.772c0 30.797-24.97 55.767-55.772 55.767s-55.772-24.97-55.772-55.767zM511.99 197.074c-78.060 0-156.14 39.081-200.75 100.378-16.773 22.313-27.843 50.156-39.081 72.458-5.535 16.773 5.53 33.459 16.773 39.081 16.773 5.535 27.843-5.535 33.464-16.768 5.535-22.308 16.773-39.086 27.843-55.777 44.616-55.767 100.383-83.697 161.664-83.697 61.302 0 122.701 27.843 156.16 78.075 11.151 16.778 22.308 38.999 27.843 55.777 5.622 16.768 22.308 22.303 33.459 16.768 16.768-5.535 22.308-22.303 16.768-33.459-5.612-27.843-22.298-50.145-39.081-72.458-38.912-61.379-116.982-100.378-195.062-100.378zM511.99 2.56c-243.497 0-445.43 201.917-445.43 445.445 0 243.512 201.933 445.435 445.43 445.435 243.512 0 445.45-201.923 445.45-445.435 0-243.528-201.938-445.445-445.45-445.445zM511.99 834.017c-213.78 0-386.002-172.216-386.002-386.012 0-213.811 172.221-386.022 386.002-386.022 213.801 0 386.022 172.211 386.022 386.022 0 213.796-172.221 386.012-386.022 386.012z" />
<glyph unicode="&#xe901;" glyph-name="chengshigengduo-01" d="M121.515 416.939h614.4l-289.109-289.109-325.291 289.109z" />
<glyph unicode="&#xe902;" glyph-name="dengduo-01" d="M537.6 267.093l311.296 311.296c6.508 6.508 10.533 15.499 10.533 25.429 0 19.862-16.101 35.963-35.963 35.963-9.931 0-18.921-4.025-25.429-10.533l-286.037-286.037-286.037 286.037c-6.477 6.435-15.404 10.413-25.259 10.413-19.795 0-35.842-16.047-35.842-35.842 0-9.94 4.046-18.935 10.581-25.427l311.298-311.298c6.532-6.456 15.515-10.443 25.429-10.443s18.898 3.988 25.433 10.447l-0.003-0.003z" />
<glyph unicode="&#xe903;" glyph-name="dianzan" d="M884.876 536.857h-237.905c92.186 340.464-63.517 357.853-63.517 357.853-65.993 0-52.312-52.182-57.303-60.882 0-166.502-176.85-296.972-176.85-296.972v-472.172c0-46.608 63.517-63.394 88.433-63.394h357.452c33.641 0 61.036 88.224 61.036 88.224 88.434 300.706 88.434 390.177 88.434 390.177 0.001 62.128-59.781 57.164-59.781 57.164v0 0zM251.671 536.7h-142.457c-29.42 0-29.873-28.896-29.873-28.896l29.42-476.203c0-30.309 30.361-30.309 30.361-30.309h123.297c25.686 0 25.459 20.050 25.459 20.050v479.247c0 36.574-36.208 36.111-36.208 36.111v0 0z" />
<glyph unicode="&#xe904;" glyph-name="duihuakuangguanbi" d="M512.001 944.322c-274.587 0-497.181-222.595-497.181-497.182s222.594-497.18 497.18-497.18 497.18 222.593 497.18 497.18-222.591 497.182-497.178 497.182zM725.212 298.385c17.798-17.803 17.798-46.657 0-64.456-17.798-17.797-46.658-17.797-64.456 0l-148.755 148.756-148.76-148.755c-17.799-17.797-46.652-17.797-64.45 0-17.804 17.799-17.804 46.653 0 64.456l148.754 148.754-148.755 148.756c-17.803 17.798-17.803 46.657 0 64.455 17.799 17.798 46.652 17.798 64.45 0l148.761-148.755 148.755 148.755c17.798 17.798 46.658 17.798 64.456 0s17.798-46.657 0-64.455l-148.756-148.756 148.756-148.755z" />
<glyph unicode="&#xe905;" glyph-name="fabu" d="M437.682 32.056c-17.673 0-32 14.327-32 32v235.2c0 17.673 14.327 32 32 32s32-14.327 32-32v-235.2c0-17.673-14.327-32-32-32zM444.929 274.034c-0.009 0-0.019 0-0.030 0-7.931 0-15.186 2.897-20.764 7.69l0.042-0.036c-13.446 11.47-15.048 31.668-3.579 45.113l452.025 529.934c11.468 13.444 31.665 15.048 45.112 3.579s15.049-31.667 3.579-45.113l-452.024-529.932c-6.329-7.42-15.318-11.235-24.361-11.235zM794.905 64.046c-5.124 0.001-9.965 1.211-14.254 3.36l0.184-0.083-238.488 116.994c-15.866 7.784-22.419 26.956-14.636 42.823s26.957 22.419 42.823 14.636l238.488-116.994c15.866-7.784 22.419-26.956 14.636-42.823-5.558-11.331-16.929-17.913-28.753-17.913zM324.426 309.534c-5.532 0-10.735 1.411-15.268 3.892l0.166-0.083-194.449 104.333c-15.573 8.355-21.424 27.754-13.068 43.327 8.356 15.574 27.755 21.424 43.327 13.068l194.449-104.333c15.573-8.355 21.424-27.754 13.068-43.327-5.772-10.759-16.816-16.877-28.225-16.877zM130.332 415.865c-11.683 0-22.938 6.419-28.576 17.555-7.982 15.768-1.67 35.021 14.098 43.003l766.662 388.096c15.771 7.982 35.021 1.669 43.004-14.098 7.981-15.768 1.67-35.021-14.099-43.003l-766.662-388.096c-4.197-2.177-9.163-3.455-14.426-3.457h-0.001zM797.13 63.926c-1.42 0-2.855 0.095-4.302 0.289-17.517 2.354-29.807 18.461-27.453 35.978l99.084 737.288c2.354 17.516 18.458 29.806 35.977 27.453 17.517-2.354 29.807-18.461 27.453-35.977l-99.084-737.288c-2.159-16.070-15.897-27.743-31.675-27.743z" />
<glyph unicode="&#xe906;" glyph-name="fanhui" d="M748.9-64c-9.8 0-19.6 3.7-27 11.2l-473.8 473.8c-6.919 6.906-11.199 16.453-11.2 27v0c0 10.1 4 19.9 11.2 27l473.7 473.8c14.9 14.9 39.1 14.9 54.1 0s14.9-39.2 0-54.1l-446.7-446.7 446.7-446.7c14.9-14.9 14.9-39.2 0-54.1-7.5-7.5-17.2-11.2-27-11.2z" />
<glyph unicode="&#xe907;" glyph-name="fenxiang" d="M73.324 375.036c-40.518 0-73.324-32.65-73.324-72.926v-293.006c0-40.212 32.828-72.926 73.324-72.926h877.352c40.518 0 73.324 32.65 73.324 72.926v293.006c0 40.212-32.828 72.926-73.324 72.926-40.296 0-72.962-32.428-72.962-73.073v-183.035c0-20.138-16.651-36.463-36.272-36.463h-658.885c-20.032 0-36.272 16.568-36.272 36.463v183.035c0 40.357-33.065 73.073-72.962 73.073zM694.857 554.985v-109.464c0-40.468 23.758-50.963 53.353-23.173l269.744 253.3c7.986 8.452 8.116 22.691 0.065 31.273l-268.341 238.348c-30.276 26.892-54.82 15.972-54.82-24.694v-109.633c-375.473 6.366-548.571-197.166-548.571-402.123 0 0 55.867 146.165 548.571 146.165z" />
<glyph unicode="&#xe908;" glyph-name="gengduo" d="M102.4 550.4c-56.32 0-102.4-46.080-102.4-102.4s46.080-102.4 102.4-102.4 102.4 46.080 102.4 102.4c0 56.32-46.080 102.4-102.4 102.4zM921.6 550.4c-56.32 0-102.4-46.080-102.4-102.4s46.080-102.4 102.4-102.4 102.4 46.080 102.4 102.4c0 56.32-46.080 102.4-102.4 102.4zM512 550.4c-56.32 0-102.4-46.080-102.4-102.4s46.080-102.4 102.4-102.4 102.4 46.080 102.4 102.4c0 56.32-46.080 102.4-102.4 102.4z" />
<glyph unicode="&#xe909;" glyph-name="gengduoxiao" d="M642.5 446.9l-332.5 332.5c-15.7 15.7-15.7 41.2 0 56.9s41.2 15.7 56.9 0l359.1-359.1c8.3-8.3 12.3-19.4 11.7-30.3 0.5-10.9-3.4-22-11.7-30.3l-359-359.1c-15.7-15.7-41.2-15.7-56.9 0s-15.7 41.2 0 56.9l332.4 332.5z" />
<glyph unicode="&#xe90a;" glyph-name="geren" d="M561.971 389.99c119.348 25.86 207.448 130.559 207.448 255.835 0 144.411-117.068 261.478-261.478 261.478s-261.478-117.068-261.478-261.478c0-126.076 89.229-231.312 207.982-256.001l1.696-0.295c-180.228-27.763-316.622-181.757-316.622-367.607 0-0.363 0.001-0.726 0.002-1.089v0.056c0.116-20.978 17.149-37.94 38.143-37.94 0.054 0 0.108 0 0.163 0h-0.008l666.112 2.97c20.978 0.116 37.939 17.149 37.939 38.143 0 0.036 0 0.072 0 0.109v-0.006c-1.138 186.103-138.844 339.702-317.894 365.688l-2.004 0.239z" />
<glyph unicode="&#xe90b;" glyph-name="gouxuanduihao" d="M951.72 807.67h-77.571c-0.006 0-0.012 0-0.019 0-11.27 0-21.306-5.283-27.767-13.507l-0.058-0.076-457.668-583.57-219.424 279.882c-6.536 8.288-16.571 13.565-27.84 13.582h-77.573c-3.46-0.040-6.441-2.053-7.873-4.966l-0.023-0.052c-0.565-1.144-0.896-2.491-0.896-3.915 0-2.052 0.687-3.944 1.843-5.458l-0.016 0.022 304.027-387.716c14.209-18.085 41.484-18.085 55.761 0l542.060 691.471c1.152 1.487 1.847 3.379 1.847 5.434 0 1.42-0.332 2.762-0.922 3.953l0.023-0.052c-1.457 2.961-4.451 4.963-7.913 4.967v0z" />
<glyph unicode="&#xe90c;" glyph-name="guanbi" d="M574.55 437.65l329.85 329.85c16.65 16.65 16.65 44.1 0 60.75l-1.8 1.8c-16.65 16.65-44.1 16.65-60.75 0l-329.85-330.3-329.85 330.3c-16.65 16.65-44.1 16.65-60.75 0l-1.8-1.8c-17.1-16.65-17.1-44.1 0-60.75l329.85-329.85-329.85-329.85c-16.65-16.65-16.65-44.1 0-60.75l1.8-1.8c16.65-16.65 44.1-16.65 60.75 0l329.85 329.85 329.85-329.85c16.65-16.65 44.1-16.65 60.75 0l1.8 1.8c16.65 16.65 16.65 44.1 0 60.75l-329.85 329.85z" />
<glyph unicode="&#xe90d;" glyph-name="jiaoyujingli" d="M953.735 586.497v-169.723l34.65-35.744-72.257-77.567-73.19 75.257 50.131 46.97v134.019c-212.6-90.373-280.724-118.457-327.897-140.382-47.132-21.925-81.094-21.845-127.819-3.648-46.767 18.156-269.377 101.924-379.891 156.43-73.758 36.393-78.499 59.492 1.257 90.373 104.111 40.769 276.185 106.058 367.369 141.68 54.022 22.532 82.552 34.811 132.116 9.159 88.468-37.689 290.694-115.906 391.239-158.701 87.495-39.391 28.651-52.319 4.294-68.124v0 0zM575.425 352.134c51.427 21.843 120.726 58.033 196.308 91.386v-267.999c-0.001 0-97.75-107.192-269.58-107.192-185.042 0-285.021 107.192-285.021 107.192v250.168c58.358-24.518 123.848-45.593 203.117-73.555 48.874-17.912 110.879-24.113 155.175 0v0 0z" />
<glyph unicode="&#xe90e;" glyph-name="jibenxinxi" d="M146.304 960h731.392c80.801 0 146.304-65.503 146.304-146.304v0-731.392c0-80.801-65.503-146.304-146.304-146.304v0h-731.392c-80.801 0-146.304 65.503-146.304 146.304v0 731.392c0 80.801 65.503 146.304 146.304 146.304v0zM256 768c-35.346 0-64-28.654-64-64s28.654-64 64-64v0c35.346 0 64 28.654 64 64s-28.654 64-64 64v0zM512 768c-35.346 0-64-28.654-64-64s28.654-64 64-64v0c35.346 0 64 28.654 64 64s-28.654 64-64 64v0zM768 768c-35.346 0-64-28.654-64-64s28.654-64 64-64v0c35.346 0 64 28.654 64 64s-28.654 64-64 64v0zM256 512c-35.346 0-64-28.654-64-64s28.654-64 64-64v0h512c35.346 0 64 28.654 64 64s-28.654 64-64 64v0h-512zM256 256c-35.346 0-64-28.654-64-64s28.654-64 64-64v0h384c35.346 0 64 28.654 64 64s-28.654 64-64 64v0h-384z" />
<glyph unicode="&#xe90f;" glyph-name="jingli" d="M349.393 673.754v-529.161l203.852 189.345 203.852-189.345v529.161h-407.704zM669.772 751.407h-402.963v-529.161l38.874 38.874v451.413h364.089v38.874z" />
<glyph unicode="&#xe910;" glyph-name="jubao" d="M960.288 172.512c-98.88 154.080-287.36 469.568-385.76 622.912-21.44 27.968-71.872 44-102.88 0l-410.144-639.296c-23.36-33.888-23.008-79.872 49.376-82.432h824.64c48.416 2.784 48.416 62.496 24.768 98.816zM522.848 200.288c-26.121 0-47.296 21.175-47.296 47.296s21.175 47.296 47.296 47.296v0c26.121 0 47.296-21.175 47.296-47.296s-21.175-47.296-47.296-47.296v0zM558.304 365.824c0.448-11.52-10.944-23.68-23.648-23.68h-23.648c-12.672 0-23.2 12.16-23.616 23.68l-23.68 224.64c0 19.552 15.904 35.456 35.488 35.456h47.296c19.584 0 35.456-15.904 35.456-35.488l-23.648-224.64z" />
<glyph unicode="&#xe911;" glyph-name="kuozhan" d="M512 959.994c-282.767 0-511.994-229.227-511.994-511.994s229.228-511.993 511.994-511.993 511.993 229.228 511.993 511.993c0 282.767-229.227 511.994-511.993 511.994zM831.607 128.393c-41.53-41.529-89.874-74.128-143.689-96.891-55.686-23.553-114.873-35.495-175.918-35.495s-120.233 11.942-175.918 35.495c-53.816 22.763-102.161 55.361-143.69 96.891s-74.128 89.874-96.891 143.689c-23.553 55.686-35.495 114.873-35.495 175.918s11.942 120.233 35.495 175.918c22.762 53.816 55.361 102.16 96.891 143.69s89.874 74.128 143.69 96.891c55.685 23.553 114.873 35.495 175.918 35.495s120.232-11.942 175.918-35.495c53.815-22.763 102.159-55.361 143.689-96.891s74.128-89.875 96.891-143.69c23.553-55.685 35.495-114.873 35.495-175.918s-11.942-120.232-35.495-175.918c-22.763-53.815-55.361-102.159-96.891-143.689zM795.465 448c0-23.483-19.037-42.52-42.52-42.52h-481.89c-23.483 0-42.52 19.036-42.52 42.52s19.037 42.52 42.52 42.52h481.89c23.483 0 42.52-19.037 42.52-42.52zM512 164.535c-23.483 0-42.52 19.037-42.52 42.52v481.891c0 23.482 19.036 42.52 42.519 42.52s42.52-19.037 42.52-42.52v-481.891c0.001-23.483-19.036-42.52-42.519-42.52z" />
<glyph unicode="&#xe912;" glyph-name="mima-01" d="M781.005 540.672h-404.070v149.709c0 49.562 60.314 104.704 134.656 104.704s134.758-55.245 134.758-104.704v-44.954h0.512c3.708-25.587 25.491-45.024 51.814-45.024s48.107 19.437 51.781 44.742l0.034 0.282h0.614v44.902c0 115.712-107.264 209.562-239.514 209.562s-239.462-93.85-239.462-209.562v-149.658h-29.952c-49.57 0-89.754-40.184-89.754-89.754 0-0.018 0-0.036 0-0.054v0.003-359.219c0-49.57 40.184-89.754 89.754-89.754v0h538.829c49.57 0 89.754 40.184 89.754 89.754v0 359.219c0 0.015 0 0.033 0 0.051 0 49.57-40.184 89.754-89.754 89.754v0zM556.544 209.152v-40.96c0.016-0.452 0.026-0.983 0.026-1.517 0-24.827-20.126-44.954-44.954-44.954s-44.954 20.126-44.954 44.954c0 0.533 0.009 1.065 0.028 1.594l-0.002-0.077v40.96c-35.691 17.222-59.878 53.131-59.878 94.688 0 57.883 46.923 104.806 104.806 104.806s104.806-46.923 104.806-104.806c0-41.558-24.188-77.466-59.253-94.416l-0.626-0.273z" />
<glyph unicode="&#xe913;" glyph-name="mimabukejian" d="M976 438.4l-80 80c35.2 38.4 64 83.2 86.4 134.4 6.4 16 0 35.2-16 41.6s-35.2 0-41.6-16c-70.4-163.2-233.6-268.8-409.6-268.8s-342.4 102.4-412.8 265.6c-6.4 12.8-19.2 19.2-28.8 19.2-3.2 0-9.6 0-12.8-3.2-16-6.4-25.6-22.4-19.2-41.6 22.4-48 51.2-92.8 86.4-131.2l-80-80c-12.8-12.8-12.8-32 0-44.8s32-12.8 44.8 0l80 80c32-28.8 70.4-54.4 108.8-73.6l-51.2-89.6c-9.6-16-3.2-35.2 12.8-44.8s35.2-3.2 44.8 12.8l54.4 96c44.8-16 89.6-25.6 137.6-28.8v-112c0-19.2 12.8-32 32-32s32 12.8 32 32v112c48 3.2 92.8 12.8 137.6 28.8l54.4-96c9.6-16 28.8-19.2 44.8-12.8 16 9.6 19.2 28.8 12.8 44.8l-51.2 89.6c38.4 19.2 76.8 44.8 108.8 73.6l80-80c12.8-12.8 32-12.8 44.8 0s12.8 32 0 44.8z" />
<glyph unicode="&#xe914;" glyph-name="mimakejian" d="M512 128c-204.8 0-387.2 121.6-470.4 307.2-3.2 9.6-3.2 16 0 25.6 83.2 185.6 265.6 307.2 470.4 307.2s387.2-121.6 470.4-307.2c3.2-9.6 3.2-16 0-25.6-83.2-185.6-265.6-307.2-470.4-307.2zM108.8 448c73.6-156.8 230.4-256 403.2-256s329.6 99.2 403.2 256c-73.6 156.8-230.4 256-403.2 256s-329.6-99.2-403.2-256zM512 288c-89.6 0-160 70.4-160 160s70.4 160 160 160 160-70.4 160-160-70.4-160-160-160zM512 544c-54.4 0-96-41.6-96-96s41.6-96 96-96 96 41.6 96 96-41.6 96-96 96z" />
<glyph unicode="&#xe915;" glyph-name="nan" d="M795.189 783.083h-112.523c-17.673 0-32 14.327-32 32s14.327 32 32 32v0h192c17.673 0 32-14.327 32-32v0-192c0-17.673-14.327-32-32-32s-32 14.327-32 32v0 116.971l-105.867-105.867c52.537-60.95 84.534-140.9 84.534-228.323 0-0.187 0-0.373 0-0.56v0.029c0-194.4-157.6-352-352-352s-352 157.6-352 352 157.6 352 352 352c0.154 0 0.337 0 0.52 0 84.109 0 161.299-29.623 221.706-79.004l-0.627 0.497 104.256 104.256zM469.333 117.333c159.061 0 288 128.939 288 288s-128.939 288-288 288-288-128.939-288-288 128.939-288 288-288z" />
<glyph unicode="&#xe916;" glyph-name="nv" d="M826.57 762.958c-66.974 66.844-155.798 103.693-250.311 103.693s-183.467-36.719-250.311-103.693c-66.844-66.844-103.693-155.669-103.693-250.311 0-84.428 29.349-164.331 83.265-228.073l-60.509-60.509-101.624 101.624c-11.248 11.248-29.996 10.861-41.762-0.905s-12.154-30.513-0.905-41.762l101.624-101.624-91.669-91.798c-11.766-11.766-11.766-30.901 0-42.537 11.766-11.766 30.901-11.766 42.537 0l91.927 91.927 101.624-101.624c11.248-11.248 29.996-10.861 41.762 0.905s12.154 30.513 0.905 41.762l-101.624 101.624 60.509 60.509c63.741-53.915 143.644-83.265 228.073-83.265 94.513 0 183.337 36.719 250.311 103.693s103.693 155.798 103.693 250.311c-0.129 94.513-36.848 183.337-103.822 250.053zM576.259 219.022c-161.875 0-293.624 131.749-293.624 293.624 0 162.004 131.749 293.754 293.754 293.754s293.624-131.749 293.624-293.754c0-161.875-131.749-293.624-293.754-293.624z" />
<glyph unicode="&#xe917;" glyph-name="pinglun" d="M816 152h-144c-4.8 0-8-1.6-11.2-4.8l-80-80c-36.8-36.8-97.6-36.8-136 0l-80 80c-3.2 3.2-6.4 4.8-11.2 4.8h-144c-70.4 0-128 57.6-128 128v448c0 70.4 57.6 128 128 128h608c70.4 0 128-57.6 128-128v-448c-1.6-70.4-59.2-128-129.6-128zM816 216c35.2 0 64 28.8 64 64v448c0 35.2-28.8 64-64 64h-608c-35.2 0-64-28.8-64-64v-448c0-35.2 28.8-64 64-64h144c20.8 0 41.6-8 56-24l80-80c12.8-12.8 32-12.8 44.8 0l80 80c14.4 14.4 35.2 24 56 24h147.2zM320 552c27.2 0 48-20.8 48-48v-32c0-27.2-20.8-48-48-48s-48 20.8-48 48v32c0 27.2 20.8 48 48 48zM512 552c27.2 0 48-20.8 48-48v-32c0-27.2-20.8-48-48-48s-48 20.8-48 48v32c0 27.2 20.8 48 48 48zM704 552c27.2 0 48-20.8 48-48v-32c0-27.2-20.8-48-48-48s-48 20.8-48 48v32c0 27.2 20.8 48 48 48z" />
<glyph unicode="&#xe918;" glyph-name="qiehuanchengshi" d="M193.504 535.488h636.8c13.664 0 25.952 8.032 31.136 20.768 1.638 3.801 2.59 8.226 2.59 12.873 0 9.148-3.691 17.433-9.664 23.449l-200.958 200.958c-5.998 6.116-14.348 9.907-23.584 9.907s-17.586-3.791-23.579-9.902l-0.005-0.005c-6.116-5.998-9.907-14.348-9.907-23.584s3.791-17.586 9.902-23.579l143.877-143.877h-556.16c-18.4 0-33.504-15.104-33.504-33.504-0.003-0.162-0.004-0.353-0.004-0.544 0-18.203 14.757-32.96 32.96-32.96 0.035 0 0.071 0 0.106 0h-0.005zM830.304 327.488h-636.8c-13.664 0-25.952-8.032-31.136-20.768-1.506-3.486-2.382-7.546-2.382-11.809 0-0.326 0.005-0.65 0.015-0.974l-0.001 0.047c0-8.48 3.296-17.44 9.92-23.584l167.456-167.936c5.998-6.116 14.348-9.907 23.584-9.907s17.586 3.791 23.579 9.902l0.005 0.005c6.116 5.998 9.907 14.348 9.907 23.584s-3.791 17.586-9.902 23.579l-110.373 110.373h556.128c18.4 0 33.504 15.104 33.504 33.504-0.032 18.4-15.104 33.984-33.504 33.984z" />
<glyph unicode="&#xe919;" glyph-name="qiuzhiyixiang" d="M322.816 403.456h383.232c56-1.152 101.76-19.52 137.344-55.104s53.952-81.344 55.104-137.344v-147.008c-0.576-19.264-6.592-34.688-17.92-46.4-11.392-11.648-26.688-17.472-45.952-17.472h-640.448c-19.264 0-34.56 5.824-45.952 17.472s-17.344 27.136-17.92 46.4v147.008c1.152 53.056 19.52 97.984 55.104 134.72s81.408 56 137.408 57.728zM290.432 672.128c1.728-63.616 23.616-116.352 65.6-158.4s94.784-63.872 158.4-65.6c63.552 1.728 116.352 23.616 158.4 65.6s63.872 94.784 65.6 158.4c-1.728 63.552-23.616 116.352-65.6 158.4s-94.848 63.808-158.4 65.6c-63.616-1.728-116.352-23.616-158.4-65.6s-63.872-94.848-65.6-158.4zM527.552 64l114.624 115.52c16.32 16.896 24.512 35.904 24.512 56.896s-8.192 38.208-24.512 51.648c-16.896 15.744-35.904 24.064-56.896 24.96s-38.208-5.376-51.648-18.816l-19.264-18.368-19.264 18.368c-16.896 12.8-36.16 19.264-57.728 19.264s-40.832-6.4-57.728-19.264c-15.744-16.896-23.616-35.712-23.616-56.448s7.872-38.080 23.616-52.032l115.52-121.6c6.4-2.944 12.544-4.352 18.368-4.352 5.824-0.192 10.496 1.28 14.016 4.224z" />
<glyph unicode="&#xe91a;" glyph-name="quxiaoshoucang" d="M486.4 179.2c16 6.4 35.2 6.4 54.4 0l217.6-99.2-28.8 236.8c-3.2 19.2 3.2 38.4 16 51.2l163.2 176-233.6 48c-19.2 3.2-35.2 16-41.6 32l-118.4 208-118.4-208c-9.6-16-25.6-28.8-41.6-32l-233.6-48 163.2-176c12.8-12.8 19.2-32 16-51.2l-28.8-236.8 214.4 99.2zM294.4 22.4c-32-16-70.4 0-86.4 32-6.4 9.6-6.4 22.4-6.4 35.2l28.8 236.8-163.2 176c-22.4 25.6-22.4 67.2 3.2 89.6 9.6 6.4 19.2 12.8 32 16l233.6 48 118.4 208c16 32 57.6 41.6 86.4 25.6 9.6-6.4 19.2-12.8 25.6-25.6l118.4-208 233.6-48c35.2-6.4 57.6-41.6 51.2-76.8-3.2-12.8-6.4-22.4-16-32l-163.2-176 28.8-236.8c3.2-35.2-22.4-67.2-57.6-70.4-12.8 0-22.4 0-35.2 6.4l-217.6 99.2-214.4-99.2z" />
<glyph unicode="&#xe91b;" glyph-name="remen-01" d="M512 960c-282.77 0-512-229.23-512-512s229.23-512 512-512c282.77 0 512 229.23 512 512v0c0 282.77-229.23 512-512 512v0zM625.778 108.942c72.249 140.516 18.773 329.956-106.382 417.564 1.258-9.71 1.976-20.942 1.976-32.341 0-63.391-22.201-121.596-59.253-167.264l0.388 0.494c2.094 8.959 3.295 19.247 3.295 29.815 0 27.858-8.344 53.768-22.668 75.366l0.315-0.505c-9.851-44.081-27.191-82.948-50.789-117.168l0.727 1.114c-36.409-53.191-61.724-109.796-14.222-208.213v0c-151.040 85.333-190.578 165.547-168.107 275.627 17.067 81.067 78.791 147.058 85.333 227.556 17.935-32.977 28.48-72.214 28.48-113.915 0-1.452-0.013-2.901-0.038-4.347l0.003 0.217c74.524 91.307 151.893 213.618 135.111 325.404 0 0 142.222-44.373 199.111-261.404 33.849 30.151 30.436 92.16 13.938 128.853 46.933-34.987 335.076-359.822-47.218-576.853z" />
<glyph unicode="&#xe91c;" glyph-name="renzheng" d="M511.336 806.4s-132.267-116.527-298.003-116.527v-241.873c0-297.719 298.667-358.4 298.667-358.4s294.684 62.767 298.667 358.684v241.683c-162.892 0-299.33 116.433-299.33 116.433zM709.12 567.561l-208.403-248.225c-7.206-8.533-17.73-13.464-28.919-13.464s-21.713 4.93-28.919 13.464l-111.597 132.93c-8.818 10.524-7.49 26.264 3.034 35.081s26.264 7.49 35.081-3.034l102.4-121.932 199.206 237.227c8.818 10.524 24.557 11.852 35.081 3.034 10.524-8.913 11.852-24.557 3.034-35.081z" />
<glyph unicode="&#xe91d;" glyph-name="shanchu" d="M566.976 438.903l289.907 289.907c14.634 14.634 14.634 38.76 0 53.394l-1.582 1.582c-14.634 14.634-38.76 14.634-53.394 0l-289.907-290.303-289.907 290.303c-14.634 14.634-38.76 14.634-53.394 0l-1.582-1.582c-15.029-14.634-15.029-38.76 0-53.394l289.907-289.907-289.907-289.907c-14.634-14.634-14.634-38.76 0-53.394l1.582-1.582c14.634-14.634 38.76-14.634 53.394 0l289.907 289.907 289.907-289.907c14.634-14.634 38.76-14.634 53.394 0l1.582 1.582c14.634 14.634 14.634 38.76 0 53.394l-289.907 289.907z" />
<glyph unicode="&#xe91e;" glyph-name="shipin" d="M661.618 567.989c0-2.373-2.496-6.521-7.453-12.454-4.992-5.933-10.336-12.92-16.031-20.988-5.695-8.060-11.004-16.831-15.996-26.314s-7.453-19.204-7.453-29.162c0-9.967 2.461-19.564 7.453-28.811 4.992-9.255 10.301-17.666 15.996-25.251 5.695-7.594 11.039-13.878 16.031-18.861 4.957-4.966 7.453-8.174 7.453-9.598v-74.689c0-8.060-2.953-17.191-8.895-27.387-5.906-10.195-13.254-19.793-22.043-28.811-8.754-9-18.492-16.488-29.18-22.395-10.652-5.941-20.742-8.895-30.234-8.895h-353.531c-12.797 0-24.539 2.25-35.191 6.75-10.688 4.5-20.039 10.793-28.125 18.844-8.051 8.068-14.344 17.543-18.844 28.459-4.5 10.907-6.75 22.764-6.75 35.561v306.598c0 9.483 2.145 19.327 6.398 29.522 4.289 10.195 10.301 19.556 18.141 28.099 7.84 8.534 17.086 15.645 27.738 21.34 10.688 5.687 22.395 8.534 35.227 8.534h353.531c12.797 0 24.785-2.25 35.93-6.759 11.145-4.5 20.848-10.67 29.145-18.492 8.297-7.831 14.836-17.191 19.582-28.099s7.102-22.526 7.102-34.857v-61.884h-0.001zM882.856 634.856v-325.090c0-10.433-2.742-19.679-8.191-27.738-5.449-8.068-13.641-12.094-24.539-12.094-3.797 0-8.648 1.424-14.59 4.271-6.988 3.383-12.803 6.698-18.382 10.343l0.628-0.385c-5.941 3.788-11.531 7.585-16.734 11.382-5.203 3.788-9 6.873-11.391 9.237-6.152 5.221-15.539 14.238-28.090 27.035-12.586 12.806-25.242 27.272-38.074 43.392-12.797 16.128-24.047 32.722-33.785 49.799-9.703 17.068-14.555 32.722-14.555 46.951 0 14.221 5.203 30.463 15.645 48.718s22.992 36.158 37.688 53.71 30.129 33.794 46.23 48.727c16.137 14.941 29.637 26.209 40.57 33.785 4.254 2.848 10.055 6.284 17.402 10.318s13.887 6.047 19.582 6.047c12.797 0 21.094-3.56 24.891-10.67s5.695-15.891 5.695-26.314v-1.424z" />
<glyph unicode="&#xe91f;" glyph-name="shipinbofang" d="M512.3 31.9c-229.2 0-415 185.8-415 415s185.8 415 415 415 415-185.8 415-415-185.8-415-415-415zM514.7 107.2c186.2 0 337.2 151 337.2 337.2s-151 337.2-337.2 337.2-337.2-151-337.2-337.2 151-337.2 337.2-337.2zM446.9 605.8l233.8-136.9c12.3-7.3 16.5-23.2 9.2-35.5-2.3-3.8-5.5-7-9.3-9.3l-233.7-135.9c-12.4-7.2-28.3-3-35.5 9.3-2.3 4-3.5 8.5-3.5 13.1v272.9c0 14.3 11.6 25.9 26 25.9 4.5 0 9-1.2 13-3.6z" />
<glyph unicode="&#xe920;" glyph-name="shoucang" d="M1003.52 569.173c-6.827 20.48-23.893 34.133-44.373 37.547l-273.067 42.667-122.88 261.12c-8.533 20.48-29.013 32.427-51.2 32.427s-40.96-11.947-51.2-32.427l-122.88-261.12-273.067-40.96c-20.48-3.413-37.547-17.067-44.373-37.547s-1.707-42.667 13.653-56.32l199.68-204.8-47.787-288.427c-3.413-20.48 5.12-42.667 23.893-54.613 17.067-11.947 40.96-13.653 59.733-3.413l242.347 131.413 244.053-136.533c8.533-3.413 17.067-6.827 25.6-6.827 30.72 0 56.32 25.6 56.32 56.32 0 6.827-1.707 11.947-3.413 17.067l-44.373 279.893 199.68 204.8c15.36 17.067 20.48 39.253 13.653 59.733z" />
<glyph unicode="&#xe921;" glyph-name="shuangchuan" d="M662.63 414.63l-128 128c-5.791 5.789-13.79 9.37-22.625 9.37s-16.834-3.581-22.625-9.37l-128-128c-5.989-5.822-9.706-13.955-9.706-22.956 0-17.673 14.327-32 32-32 9.001 0 17.134 3.716 22.948 9.698l0.007 0.008 73.37 73.37v-354.75c0-17.673 14.327-32 32-32s32 14.327 32 32v0 354.75l73.37-73.37c5.822-5.989 13.955-9.706 22.956-9.706 17.673 0 32 14.327 32 32 0 9.001-3.716 17.134-9.698 22.948l-0.008 0.007zM752 200h-112c-17.673 0-32 14.327-32 32s14.327 32 32 32v0h112c79.4 0 144 64.6 144 144 0 0.001 0 0.003 0 0.004 0 75.464-58.048 137.369-131.929 143.501l-0.521 0.035c-15.208 1.238-27.338 12.943-29.224 27.842l-0.016 0.158c-13.71 112-109.31 196.46-222.31 196.46s-208.6-84.46-222.31-196.45c-1.902-15.057-14.032-26.762-29.126-27.993l-0.114-0.007c-74.402-6.166-132.45-68.072-132.45-143.536 0-0.005 0-0.010 0-0.015v0.001c0-79.4 64.6-144 144-144h112c17.673 0 32-14.327 32-32s-14.327-32-32-32v0h-112c-114.69 0-208 93.31-208 208 0.019 100.088 70.701 183.663 164.872 203.55l1.358 0.24c27.77 131.71 144.77 228.21 281.77 228.21s254-96.5 281.77-228.21c95.529-20.127 166.211-103.702 166.23-203.788v-0.002c0-114.69-93.31-208-208-208z" />
<glyph unicode="&#xe922;" glyph-name="shuaxin" d="M1021.028 479.15l-120.143-119.597c-4.712-4.317-11.017-6.962-17.939-6.962s-13.228 2.645-17.959 6.98l0.020-0.018-119.542 119.597c-14.199 16.383-4.696 22.39 5.461 31.674h109.221c-34.066 163.138-176.686 283.928-347.518 283.928-131.948 0-247.066-72.060-308.146-178.974l-0.916-1.74-59.744 23.482c72.254 131.864 210.091 219.779 368.461 219.779 205.73 0 376.81-148.36 412.086-343.928l0.381-2.547h91.090c6.131-3.773 10.157-10.446 10.157-18.060 0-5.201-1.879-9.963-4.995-13.645l0.026 0.031zM162.935 504.817l120.143-119.597c3.074-3.652 4.941-8.408 4.941-13.601 0-7.611-4.013-14.285-10.039-18.021l-0.090-0.052h-104.251c45.508-147.186 180.376-252.266 339.785-252.266 121.614 0 228.944 61.159 292.912 154.398l0.783 1.208 60.344-23.482c-75.377-117.928-205.621-194.99-353.864-194.99-194.424 0-357.889 132.553-404.954 312.218l-0.648 2.914h-95.513c-9.884 9.284-19.387 15.291-5.461 31.674l119.542 119.597c4.743 4.453 11.145 7.189 18.185 7.189s13.442-2.736 18.199-7.202l-0.014 0.013z" />
<glyph unicode="&#xe923;" glyph-name="sousuo-1" d="M967.215 42.682l-182.737 182.737c60.704 71.778 97.606 165.383 97.606 267.606 0 0.076 0 0.152 0 0.228v-0.012c0 230.353-187.392 417.792-417.792 417.792s-417.745-187.439-417.745-417.792c0-230.353 187.392-417.745 417.792-417.745 0.051 0 0.111 0 0.171 0 103.701 0 198.525 38.006 271.303 100.848l-0.533-0.45 182.598-182.598c6.305-6.331 15.030-10.248 24.669-10.248s18.364 3.917 24.668 10.247l0.001 0.001c6.322 6.318 10.233 15.049 10.233 24.692s-3.911 18.374-10.232 24.692v0zM116.364 493.242c0 191.907 156.113 347.974 347.974 347.974s347.974-156.113 347.974-347.974c-0.003-94.002-37.429-179.263-98.193-241.695l0.076 0.078c-0.977-0.838-2.234-1.164-3.119-2.095-1.117-1.117-1.583-2.607-2.56-3.817-62.633-62.055-148.852-100.399-244.027-100.399-0.036 0-0.073 0-0.109 0h0.005c-191.907 0-348.020 156.113-348.020 347.927z" />
<glyph unicode="&#xe924;" glyph-name="sousuo" d="M722.432 766.464c-147.456 147.456-386.56 148.992-531.968 3.072-145.92-145.92-144.384-384.512 3.072-531.968 140.8-140.8 365.056-148.48 512-22.016l189.44-189.44c10.752-10.752 28.672-11.264 39.424 0 10.752 10.752 10.752 28.672 0 39.424l-189.44 189.44c125.952 146.432 118.272 370.688-22.528 511.488zM686.080 273.92c-124.416-124.416-327.68-122.88-453.12 2.56-125.952 125.952-126.976 329.216-2.56 453.12s327.68 122.88 453.12-2.56 126.976-329.216 2.56-453.12z" />
<glyph unicode="&#xe925;" glyph-name="sousuolishi" d="M512 32c-229.75 0-416 186.25-416 416s186.25 416 416 416c229.75 0 416-186.25 416-416v0c0-229.75-186.25-416-416-416v0zM512 800c-194.404 0-352-157.596-352-352s157.596-352 352-352c194.404 0 352 157.596 352 352v0c0 194.404-157.596 352-352 352v0zM704 352h-192c-17.673 0-32 14.327-32 32v0 256c0 17.673 14.327 32 32 32s32-14.327 32-32v0-224h160c17.673 0 32-14.327 32-32s-14.327-32-32-32v0z" />
<glyph unicode="&#xe926;" glyph-name="tianjia" d="M900.7 527.8h-352.3v322.9c0 20.2-16.5 36.7-36.7 36.7s-36.7-16.5-36.7-36.7v-322.9h-352.2c-20.2 0-36.7-16.5-36.7-36.7s16.5-36.7 36.7-36.7h352.3v-381.6c0-20.2 16.5-36.7 36.7-36.7s36.7 16.5 36.7 36.7v381.6h352.3c20.2 0 36.7 16.5 36.7 36.7-0.1 20.2-16.6 36.7-36.8 36.7z" />
<glyph unicode="&#xe927;" glyph-name="tongyi" d="M356.633 93.397c-0.001 0-0.003 0-0.004 0-11.971 0-22.809 4.854-30.652 12.701l-309.382 309.382c-7.844 7.844-12.695 18.679-12.695 30.648s4.852 22.805 12.695 30.648v0c7.842 7.849 18.68 12.705 30.652 12.705s22.81-4.855 30.652-12.705v0l278.726-278.726 590.789 590.796c7.844 7.844 18.679 12.695 30.648 12.695s22.805-4.852 30.648-12.695v0c7.848-7.843 12.702-18.681 12.702-30.652s-4.854-22.809-12.702-30.652l-621.437-621.445c-7.834-7.847-18.664-12.702-30.628-12.702-0.005 0-0.009 0-0.014 0h0.001z" />
<glyph unicode="&#xe928;" glyph-name="tuijian" d="M770.080 431.659c37.097 0 55.646 111.291 0 111.291h-111.294c111.294 185.486 30.721 222.583 0 222.583 0-94.233-138.575-199.242-278.228-241.131v-296.775h-37.096v296.778h37.096v18.552h-74.193c-20.405 0-37.096-25.044-37.096-55.647v-222.585c0-30.605 16.691-55.643 37.096-55.643h74.194v18.543c158.088-16.429 102.974-55.644 259.679-55.644 37.097 0 74.193 18.548 74.193 55.644 37.101 0 55.649 92.743 37.101 92.743 37.096 0 60.858 111.292 18.547 111.292v0z" />
<glyph unicode="&#xe929;" glyph-name="tupian" d="M939 922h-855c-45 0-81.6-33.4-81.6-78.4v-785.6c0-45 36.8-81.8 81.6-81.8h861.8c44.8 0 78.2 36.8 78.2 81.8v785.6c0 45-40.2 78.4-85 78.4zM331.4 805.8c69.2 0 125.2-56 125.2-125.2 0-69-56.2-125-125.2-125s-125.2 56-125.2 125 56.2 125.2 125.2 125.2zM139.4 93.2c-8.8 0-17.8 3-25 9.2-16.2 13.8-18 38.2-4.2 54.4l176.8 266.6c13.2 15.4 35.8 17.8 52.2 5.8l156-116 279.8 317.8c13.2 16.6 83.4 94.8 124.6 6.2 0 0.2 0.2-117.4 0.2-237.4v-306.6c-0.6 0.4-760 0-760.4 0z" />
<glyph unicode="&#xe92a;" glyph-name="weidianzan" d="M595.394 878.158c-46.545 0-87.143-31.806-95.677-76.8 0 0-13.834-70.465-21.075-95.806-11.895-41.762-53.527-87.919-83.653-102.659-22.756-11.248-107.313-11.378-112.485-11.378h-115.071c-31.677 0-57.406-25.6-57.406-57.406v-459.248c0-31.677 25.6-57.406 57.406-57.406h529.842c85.204 0 157.608 62.319 170.279 146.618l44.347 295.564c10.473 69.43-43.313 131.749-113.519 131.749h-130.586s19.394 64.259 29.22 172.735c4.913 54.949-34.004 107.313-91.152 113.261-3.491 0.517-6.982 0.776-10.473 0.776zM339.523 74.99v460.929c37.624 2.457 64.776 7.758 80.808 15.774 42.279 20.945 96.323 78.352 113.39 138.343 7.628 26.764 20.687 92.962 22.238 100.719 3.362 17.325 19.911 30.125 39.305 30.125 1.552 0 3.103-0.129 4.655-0.259 27.281-2.844 41.891-28.703 39.952-50.941-9.051-100.461-26.893-160.97-27.152-161.358l-22.368-73.956h208.032c16.937 0 32.453-7.111 43.572-19.911s15.774-29.22 13.188-46.028l-44.218-295.564c-8.533-56.63-56.242-97.745-113.519-97.745h-357.883zM167.434 74.99v459.248h114.683v-459.248h-114.683z" />
<glyph unicode="&#xe92b;" glyph-name="weixin-01" d="M392.533 789.345c-164.636 0-298.098-111.616-298.098-249.298 0-80.725 45.864-152.462 117.009-198.042l2.731-1.718-28.809-90.226 107.748 54.886 5.074-1.468c28.11-8.069 60.395-12.709 93.765-12.709 0.204 0 0.408 0 0.611 0.001h-0.032c6.736 0 13.403 0.262 20.025 0.614-5.972 17.759-9.434 38.211-9.466 59.467v0.016c0 125.679 121.594 227.556 271.519 227.556 4.233 0 8.385-0.080 12.516-0.273-21.97 119.592-145.545 211.194-294.593 211.194zM288.791 585.364c-23.131 0-41.859 18.204-41.859 40.539s18.728 40.528 41.859 40.528 41.882-18.125 41.882-40.528-18.751-40.539-41.882-40.539zM496.23 585.364c-23.142 0-41.847 18.204-41.847 40.539s18.705 40.528 41.847 40.528 41.836-18.125 41.836-40.528-18.716-40.539-41.836-40.539zM928.62 349.389c0 116.304-112.731 210.58-251.767 210.58s-251.858-94.333-251.858-210.58 112.765-210.625 251.858-210.625c0.125 0 0.274 0 0.422 0 28.197 0 55.474 3.938 81.312 11.295l-2.089-0.509c1.445 0.375 4.278 1.24 4.278 1.24l91.022-46.41-24.314 76.231s1.559 0.978 2.276 1.468c60.063 38.468 98.839 99.089 98.839 167.253zM589.198 387.664c-19.524 0-35.362 15.337-35.362 34.258s15.838 34.202 35.362 34.202 35.374-15.314 35.374-34.202-15.861-34.258-35.374-34.258zM764.416 387.664c-19.524 0-35.339 15.337-35.339 34.258s15.815 34.202 35.339 34.202 35.442-15.314 35.442-34.202-15.815-34.258-35.385-34.258z" />
<glyph unicode="&#xe92c;" glyph-name="weizhi" d="M511.5 448c-72.8 0-130 57.2-130 130s57.2 130 130 130 130-57.2 130-130-57.2-130-130-130zM512 896c-174.7 0-313.5-138.9-313.5-313.6 0-233 313.5-582.4 313.5-582.4s313.5 349.4 313.5 582.4c0 174.7-138.8 313.6-313.5 313.6z" />
<glyph unicode="&#xe92d;" glyph-name="xiangmujingli" d="M416.012 911.942h-287.964c-35.324 0-63.992-28.668-63.992-63.992v-287.964c0-35.324 28.668-63.992 63.992-63.992h287.964c35.324 0 63.992 28.668 63.992 63.992v287.964c0 35.324-28.668 63.992-63.992 63.992zM895.952 911.942h-287.964c-35.324 0-63.992-28.668-63.992-63.992v-287.964c0-35.324 28.668-63.992 63.992-63.992h287.964c35.324 0 63.992 28.668 63.992 63.992v287.964c0 35.324-28.668 63.992-63.992 63.992zM416.012 432.002h-287.964c-35.324 0-63.992-28.668-63.992-63.992v-319.96c0-35.324 28.668-63.992 63.992-63.992h287.964c35.324 0 63.992 28.668 63.992 63.992v319.96c0 35.324-28.668 63.992-63.992 63.992zM895.952 432.002h-287.964c-35.324 0-63.992-28.668-63.992-63.992v-319.96c0-35.324 28.668-63.992 63.992-63.992h287.964c35.324 0 63.992 28.668 63.992 63.992v319.96c0 35.324-28.668 63.992-63.992 63.992z" />
<glyph unicode="&#xe92e;" glyph-name="xiegedongtai" d="M960.3 34.4c0 22.6-18.3 41-41 41h-819.2c-22.6 0-41-18.3-41-41 0-22.6 18.3-41 41-41h819.3c22.6 0.1 40.9 18.4 40.9 41zM874.9 714.5c-0.1 0.1-0.3 0.2-0.4 0.4l-179.4 179.4c-26.7 23.2-67.3 22.2-92.7-3.3-0.1-0.1-0.2-0.3-0.4-0.4l-466.6-466.5c-9.4-9.4-13.3-22.3-11.6-34.6v-209.1c0-2.1 0.2-4.2 0.5-6.2 0.2-1.4 0.5-2.7 0.8-4 0.7-2.6 1.6-5.1 2.7-7.5 0.6-1.2 1.2-2.4 1.9-3.5 0.3-0.6 0.7-1.1 1.1-1.7 0.7-1.1 1.5-2.1 2.4-3.2 3.6-4.4 8.1-8 13.2-10.6l1.2-0.6c5.2-2.4 11-3.8 17.2-3.8h214.3c13.2 0 25 6.3 32.4 16l467.8 467.8c22 26.8 20.5 66.4-4.4 91.4z" />
<glyph unicode="&#xe92f;" glyph-name="yuyin" d="M519.516 254.562c-98.393 0-177.108 80.37-180.387 176.815v295.764c0 96.445 81.994 176.815 180.387 176.815s180.387-80.37 180.387-176.815v-292.549c0-99.66-81.994-180.030-180.387-180.030zM776.131 566.573c9.602 0 16.002-3.171 22.403-9.515s9.602-15.858 9.602-25.373v-91.978c0-152.239-118.416-279.105-265.635-294.963v-72.947h112.015c19.202 0 32.004-15.858 35.205-34.889 0-19.029-16.002-31.716-35.205-34.889h-288.039c-19.202 0-32.004 15.858-35.205 34.889 0 19.029 16.002 31.716 35.205 34.889h112.014v72.947c-150.42 19.029-265.635 145.896-265.635 298.134v101.493c0 19.029 16.002 31.716 35.205 34.889 19.202 0 32.004-15.858 35.205-34.889v-101.493c0-126.865 102.414-231.53 230.43-231.53s230.43 101.493 230.43 231.53v91.978c0.001 19.030 12.803 31.716 32.005 31.716z" />
<glyph unicode="&#xe930;" glyph-name="yuyindianhua" d="M679.539 344.65c-16.62 4.456-42.017-23.685-42.017-23.685-8.118-8.118-15.488-21.818-21.997-36.363-10.401-23.242-39.558-31.861-60.655-17.603-85.917 58.064-168.97 141.34-226.593 227.298-13.837 20.641-5.953 48.863 16.253 60.017 20.279 10.186 39.022 20.033 39.022 20.033l-0.152 0.509c13.867 6.312 21.666 21.914 17.601 37.091 0 0-116.005 284.033-149.172 284.033-103.733 0-187.845-84.113-187.845-187.845 0-23.794 4.591-46.334 12.731-67.207 87.034-302.014 324.764-539.534 626.778-626.778 20.871-8.14 43.621-12.731 67.415-12.731 103.732 0 189.411 79.104 189.411 182.836 0 0-142.916 104.992-280.779 160.396z" />
<glyph unicode="&#xe931;" glyph-name="zhengshu" d="M335.787 21.333s-47.787 53.76-93.013 98.133c-48.213 13.227-96.853 25.6-145.92 37.12l99.413 171.947c52.48-68.267 144.64-127.147 231.68-148.48l-92.16-158.72zM789.333 128c-45.227-44.373-101.547-106.667-101.547-106.667l-91.307 158.72c87.040 21.333 170.667 79.787 223.147 148.48l107.52-171.947c-0.427-0.427-73.387-10.667-137.813-28.587zM511.573 874.667c-173.227 0-322.133-157.44-322.133-331.093s148.907-314.027 322.133-314.027 322.133 148.907 322.133 322.56-148.907 322.56-322.133 322.56zM697.6 566.187l-56.32-58.453c-7.68-7.68-11.52-18.773-8.96-29.867v-1.28l12.8-79.36c1.28-7.68 0-15.787-3.84-22.187-9.813-17.493-31.573-24.32-49.067-14.507l-64.853 34.56c-10.24 5.547-23.040 5.547-33.28-1.28l-63.147-33.707c-7.253-3.84-14.933-4.693-23.040-3.84-19.2 2.987-32.853 21.76-29.867 40.96l13.227 82.347c1.28 9.813-1.707 19.2-8.533 26.453l-56.747 60.16c-4.693 5.547-8.533 12.8-9.813 20.053-2.987 19.2 11.093 37.547 30.293 40.533l72.533 11.52c11.52 0.427 21.76 7.68 26.453 18.347l33.28 70.827c5.973 11.947 18.773 20.48 32.853 20.48s26.453-7.68 32.853-20.48l32.853-70.4c4.693-11.093 14.933-18.347 27.307-19.2l72.533-11.093c7.253-1.28 14.507-4.693 20.053-9.813 13.653-14.080 14.080-37.12 0.427-50.773z" />
<glyph unicode="&#xe932;" glyph-name="zhuanfa" d="M785.067 430.592c0 9.444 5.006 18.204 13.198 22.869 8.192 4.779 18.318 4.779 26.396 0 8.192-4.779 13.198-13.426 13.198-22.869v-155.534c0-88.178-71.452-159.744-159.744-159.744h-332.914c-88.178 0-159.744 71.452-159.744 159.744v333.028c0 88.178 71.452 159.744 159.744 159.744h144.612c14.564 0 26.51-11.833 26.51-26.396s-11.833-26.396-26.51-26.396h-144.612c-28.331 0-55.524-11.264-75.548-31.289-19.33-19.337-31.286-46.046-31.289-75.548v0-333.028c0-28.331 11.264-55.524 31.289-75.548s47.218-31.289 75.548-31.289h333.028c58.937 0 106.837 47.787 106.837 106.837v155.42zM678.229 104.846h-333.028c-93.753 0-170.098 76.345-170.098 170.098v333.141c0 93.753 76.345 170.098 170.098 170.098h144.612c20.366 0 36.864-16.498 36.864-36.864s-16.498-36.864-36.864-36.864h-144.612c-25.714 0-49.948-10.012-68.153-28.217s-28.217-42.439-28.217-68.153v-333.028c0-25.714 10.012-49.948 28.217-68.153s42.439-28.217 68.153-28.217h333.028c53.134 0 96.37 43.236 96.37 96.37v155.534c0 13.084 7.054 25.372 18.432 31.972 5.575 3.186 11.947 4.892 18.432 4.892s12.857-1.707 18.432-4.892c11.378-6.599 18.432-18.773 18.432-31.972v-155.534c0-93.867-76.231-170.212-170.098-170.212zM345.202 757.362c-82.261 0-149.276-67.015-149.276-149.276v-333.028c0-82.261 67.015-149.276 149.276-149.276h333.028c82.261 0 149.276 67.015 149.276 149.276v155.534c0 5.689-3.072 11.036-8.078 13.881-4.892 2.844-11.15 2.844-16.043 0s-7.964-8.192-7.964-13.881v-155.534c0-64.626-52.565-117.191-117.191-117.191h-333.028c-31.289 0-60.757 12.174-82.83 34.361-22.187 22.187-34.361 51.541-34.361 82.83v333.028c0 31.289 12.174 60.757 34.361 82.83 22.187 22.187 51.541 34.361 82.83 34.361h144.612c8.875 0 16.043 7.168 16.043 16.043s-7.168 16.043-16.043 16.043h-144.612zM785.067 714.809h-140.060c-14.564 0-26.396 11.833-26.396 26.396s11.833 26.396 26.396 26.396h166.571c14.564 0 26.51-11.833 26.51-26.396v-166.571c0-9.444-5.006-18.204-13.198-22.869-8.192-4.779-18.318-4.779-26.396 0-8.192 4.779-13.198 13.426-13.198 22.869v140.174zM811.463 539.477c-6.144 0-12.288 1.593-17.636 4.665-10.809 6.258-17.636 17.977-17.636 30.492v131.413h-131.186c-19.456 0-35.271 15.815-35.271 35.271s15.815 35.271 35.271 35.271h166.571c19.456 0 35.271-15.815 35.271-35.271v-166.571c0-12.516-6.713-24.235-17.636-30.492-5.461-3.072-11.605-4.779-17.749-4.779zM645.006 758.955c-9.785 0-17.636-7.964-17.636-17.636 0-9.785 7.964-17.636 17.636-17.636h148.821v-148.821c0-6.258 3.413-12.174 8.875-15.36 5.348-3.072 12.288-3.072 17.636 0 5.461 3.186 8.875 8.988 8.875 15.36v166.457c0 9.785-7.964 17.636-17.636 17.636h-166.571zM530.432 422.855c-10.468-9.671-26.624-9.444-36.75 0.683s-10.354 26.283-0.683 36.75l299.804 299.804c10.468 9.671 26.624 9.444 36.75-0.683s10.354-26.283 0.683-36.75l-299.804-299.804zM512.341 406.926c-9.444 0-18.204 3.641-24.917 10.354-6.4 6.372-10.361 15.19-10.361 24.932 0 9.283 3.595 17.725 9.469 24.012l-0.019-0.020 300.26 300.26c6.485 6.144 15.019 9.444 24.007 9.444 9.444 0 18.204-3.641 24.917-10.354 6.4-6.372 10.361-15.19 10.361-24.932 0-9.283-3.595-17.725-9.469-24.012l0.019 0.020-300.26-300.26c-6.485-6.030-15.019-9.444-24.007-9.444zM499.371 454.144c-6.372-7.054-6.258-17.749 0.569-24.462 3.3-3.3 7.737-5.234 12.516-5.234 4.437 0 8.647 1.707 11.947 4.665l299.577 299.577c6.372 7.054 6.258 17.749-0.569 24.462-3.3 3.3-7.737 5.234-12.516 5.234-4.437 0-8.647-1.707-11.947-4.665l-299.577-299.577z" />
<glyph unicode="&#xe933;" glyph-name="zhuanrurencaiku" d="M71.9 50.2c-2.2-8.4-12.5-5.9-11.9 2.9 13.1 187 71.1 284.1 128.1 352.8 86.6 104.2 281.7 201.4 415.9 212.8 10.6 0.9 18.9 11.7 18.9 24.8v158.6c0 21.7 21.1 32.9 34.1 18.2l299.5-339.5c9-10.2 8.6-27.6-0.8-37.2l-293.7-301.2c-13.2-13.5-33.3-2-33.3 19v194.3c0 12.9-8.1 23.7-18.6 24.7-85.7 8.5-287.5-10.3-369.1-70.2-34.8-25.4-129.8-112.4-169.1-260z" />
<glyph unicode="&#xe934;" glyph-name="ziwojieshao" d="M284.4 639.5c0-125.866 102.034-227.9 227.9-227.9s227.9 102.034 227.9 227.9v0c0 125.866-102.034 227.9-227.9 227.9s-227.9-102.034-227.9-227.9v0zM703 437c-49.9-47-116.9-75.9-190.7-75.9s-140.8 29-190.7 75.9c-133.7-69.2-225.3-208.8-225.3-369.5 0-19.9 16.1-36 36-36h760.2c19.9 0 36 16.1 36 36-0.1 160.7-91.8 300.3-225.5 369.5z" />
<glyph unicode="&#xe935;" glyph-name="zuixin" d="M860.4 696.9h-696.8c-54.8 0-99.6-44.8-99.6-99.6v-298.7c0-54.8 44.8-99.6 99.6-99.6h696.9c54.8 0 99.6 44.8 99.6 99.6v298.7c-0.1 54.8-44.9 99.6-99.7 99.6zM359.2 332.4h-41.9l-110.5 169.9c-2.8 4.3-5.1 8.8-6.9 13.4h-1c0.9-4.9 1.3-15.5 1.3-31.8v-151.5h-37.1v231.2h44.7l106.7-165.9c4.5-6.9 7.4-11.6 8.7-14.2h0.6c-1.1 6.1-1.6 16.5-1.6 31.1v149h36.9v-231.2zM527.5 332.4h-129.8v231.2h124.6v-32.6h-86.3v-65.4h79.5v-32.4h-79.5v-68.4h91.4v-32.4zM797.5 332.4h-43.4l-44 161.7c-1.8 6.9-3 14.4-3.4 22.6h-0.6c-0.5-7.6-1.8-15-3.9-22.2l-44.2-162h-44.3l-64.7 231.2h42.1l41.9-169.3c1.7-7.1 2.8-14.5 3.2-22.2h0.8c0.4 5.5 1.9 12.9 4.5 22.2l47.5 169.2h39.5l43.9-170.6c1.5-5.8 2.6-12.7 3.4-20.6h0.6c0.3 5.4 1.6 12.5 3.7 21.3l41.1 169.9h39.7l-63.4-231.2z" />
</font>
</defs>
</svg>
